<?xml version="1.0" standalone="no"?><!DOCTYPE svg PUBLIC "-//W3C//DTD SVG 1.1//EN" "http://www.w3.org/Graphics/SVG/1.1/DTD/svg11.dtd"><svg t="1565746938701" class="icon" viewBox="0 0 1024 1024" version="1.1" xmlns="http://www.w3.org/2000/svg" p-id="7717" xmlns:xlink="http://www.w3.org/1999/xlink" width="200" height="200"><defs><style type="text/css"></style></defs><path d="M 156.4 927.8 c -14.2 0 -28.1 -5.2 -39.2 -15.3 c -18 -16.4 -23.9 -41.6 -15.2 -64.2 l 128 -332.9 c 0.6 -1.6 0.6 -3.5 0 -5.2 L 102 177.5 c -8.7 -22.6 -2.8 -47.8 15.2 -64.2 c 18 -16.3 43.7 -19.9 65.4 -9 l 712.9 356.4 c 19.9 10 32.3 30 32.3 52.3 c 0 22.3 -12.4 42.3 -32.3 52.2 L 182.6 921.6 c -8.4 4.2 -17.3 6.2 -26.2 6.2 Z m 0 -778.6 c -2 0 -3.6 1 -4.7 2 c -1.6 1.5 -3.3 4.1 -1.9 7.8 l 128.1 332.9 c 5.2 13.5 5.2 28.4 0 41.9 l -128 332.9 c -1.5 3.8 0.2 6.4 1.9 7.8 c 1.6 1.5 4.3 2.9 8 1.1 l 712.8 -356.5 c 3.3 -1.6 4 -4.4 4 -6.4 s -0.7 -4.8 -4 -6.4 L 159.7 150.1 c -1.2 -0.6 -2.3 -0.9 -3.3 -0.9 Z" fill="#c9cacc" p-id="7718"></path><path d="M 536.5 538.5 H 275.9 c -14.2 0 -25.6 -11.5 -25.6 -25.6 c 0 -14.2 11.5 -25.6 25.6 -25.6 h 260.6 c 14.2 0 25.6 11.5 25.6 25.6 c 0 14.2 -11.4 25.6 -25.6 25.6 Z" fill="#c9cacc" p-id="7719"></path></svg>