<?xml version="1.0" standalone="no"?><!DOCTYPE svg PUBLIC "-//W3C//DTD SVG 1.1//EN" "http://www.w3.org/Graphics/SVG/1.1/DTD/svg11.dtd"><svg t="1565746795166" class="icon" viewBox="0 0 1024 1024" version="1.1" xmlns="http://www.w3.org/2000/svg" p-id="2071" xmlns:xlink="http://www.w3.org/1999/xlink" width="200" height="200"><defs><style type="text/css"></style></defs><path d="M511.997442 717.395974c116.403127-0.24764 210.700793-94.545306 210.948433-210.948433V217.784118c0-116.502387-94.446046-210.943316-210.948433-210.943316-116.503411 0-210.94434 94.440929-210.94434 210.943316V506.447541c0.242524 116.403127 94.54633 210.69977 210.94434 210.948433zM367.668289 217.784118c0-79.707366 64.61667-144.32813 144.329153-144.328129 79.71146 0 144.333246 64.620763 144.333246 144.328129V506.447541c0 79.713506-64.621786 144.333246-144.333246 144.333246-79.713506 0-144.329153-64.620763-144.329153-144.333246V217.784118z m0 0" fill="#c9cacc" p-id="2072"></path><path d="M856.174202 506.447541c-0.00614-18.389836-14.914688-33.299407-33.310663-33.299407-18.393929 0-33.304524 14.909571-33.304524 33.299407 0 153.292292-124.271328 277.55748-277.561573 277.55748-153.292292 0-277.55748-124.265188-277.55748-277.55748-0.00614-18.389836-14.914688-33.299407-33.310664-33.299407-18.389836 0-33.299407 14.909571-33.304523 33.299407 0.291642 177.038112 134.677329 325.0614 310.868143 342.399277v101.697193H334.357626c-18.389836 0-33.299407 14.915711-33.299407 33.304524 0 18.394952 14.909571 33.304524 33.299407 33.310663h355.277585c18.394952-0.005117 33.304524-14.914688 33.304524-33.310663 0-18.389836-14.909571-33.304524-33.304524-33.304524H545.306058v-101.697193c176.184675-17.337877 310.576501-165.362188 310.868144-342.399277z m0 0" fill="#c9cacc" p-id="2073"></path></svg>